<svg aria-hidden="true" style="width:0;height:0;position:absolute;overflow:hidden" xmlns="http://www.w3.org/2000/svg"><defs><symbol id="icon-chocolate" viewBox="0 0 32 32"><path fill="#fcf1e0" style="fill:var(--color1,#fcf1e0)" d="M3.944 20.076 14.721 2.652l.64-.674 8.236 5.491.056 3.314 2.01 3.28-8.88 14.077-12.839-8.063z"/><path fill="none" stroke="#fd9222" style="stroke:var(--color2,#fd9222)" stroke-linejoin="round" stroke-linecap="round" stroke-width="2.667" d="M21.635 23.88 7.45 15.016m3.911-6.417 14.185 8.864M10.63 25.864l11.736-19.25m4.81 8.175c-3.04-1.899-4.234-3.384-2.278-6.592l-9.626-6.015-11.736 19.25 14.186 8.864 9.454-15.507z"/></symbol><symbol id="icon-arrow" viewBox="0 0 32 32"><path fill="#fd9222" style="fill:var(--color2,#fd9222)" d="M16.947 17.867a1.334 1.334 0 0 1-1.894 0l-6.107-6.12a1.334 1.334 0 1 0-1.894 1.88l6.12 6.12a4.001 4.001 0 0 0 5.654 0l6.12-6.12a1.337 1.337 0 0 0-.434-2.172 1.331 1.331 0 0 0-1.46.292l-6.107 6.12z"/></symbol><symbol id="icon-insta" viewBox="0 0 32 32"><path d="M8.084 1.684A7.794 7.794 0 0 0 1.911 7.11l-.014.055C1.593 8.215 1.6 8.003 1.6 16s-.007 7.785.297 8.835c.76 2.545 2.724 4.508 5.213 5.254l.055.014c1.05.304.838.297 8.835.297s7.785.007 8.835-.297c2.545-.76 4.508-2.724 5.254-5.213l.014-.055c.304-1.05.297-.838.297-8.835s.007-7.785-.297-8.835c-.76-2.545-2.724-4.508-5.213-5.254l-.055-.014c-1.053-.304-.826-.297-8.9-.291-5.911.006-7.514.022-7.85.079zm15.072 2.104a5.455 5.455 0 0 1 3.32 1.493l-.002-.002a5.518 5.518 0 0 1 1.737 3.544l.002.021c.073.768.073 13.545 0 14.313a5.455 5.455 0 0 1-1.493 3.32l.002-.002a5.518 5.518 0 0 1-3.544 1.737l-.021.002c-.768.073-13.545.073-14.313 0a5.523 5.523 0 0 1-3.562-1.735l-.003-.003a5.444 5.444 0 0 1-1.49-3.298l-.001-.02c-.073-.768-.073-13.545 0-14.313a5.455 5.455 0 0 1 1.493-3.32l-.002.002c.913-.972 2.189-1.61 3.468-1.734.676-.065 13.724-.07 14.41-.004zM22.8 7.67c.311-.147.959-.112 1.225.068.275.186.401.481.401.934 0 .727-.346 1.075-1.081 1.084-.703.01-1.101-.38-1.104-1.078-.003-.506.175-.825.559-1.008zm-7.2 1.854a6.656 6.656 0 0 0-2.428.684l.038-.018c-2.134 1.06-3.574 3.225-3.574 5.726 0 .204.01.406.028.605l-.002-.025a6.231 6.231 0 0 0 1.058 3.02l-.014-.022a6.496 6.496 0 0 0 4.321 2.796l.038.005c.534.084 1.632.071 2.131-.026 2.652-.512 4.672-2.516 5.185-5.145.116-.592.116-1.743.001-2.324-.273-1.383-.82-2.419-1.792-3.392a6.178 6.178 0 0 0-3.3-1.773l-.038-.006a8.556 8.556 0 0 0-1.667-.104h.014zm1.251 2.269c.809.127 1.599.556 2.243 1.216 1.956 2.009 1.42 5.377-1.062 6.665-.72.372-1.094.46-1.978.46-.662 0-.832-.019-1.174-.125a4.329 4.329 0 0 1-2.872-2.832L12 17.146c-.169-.532-.207-1.516-.081-2.086.217-.992.835-1.955 1.604-2.505 1.018-.726 2.052-.963 3.328-.762z"/></symbol><symbol id="icon-twitt" viewBox="0 0 32 32"><path d="M21.213 2.829a7.168 7.168 0 0 0-4.282 2.05c-1.315 1.315-2.104 3.117-2.104 4.814v.44h-.21c-1.051 0-3.234-.578-4.522-1.197-1.688-.811-3.155-2.16-4.853-4.462-.568-.77-.768-.922-1.19-.914-.533.01-.973.347-1.218.936-.485 1.163-.947 3.179-1.126 4.906-.077.739-.08 2.456-.005 3.211.41 4.12 2.392 7.4 5.872 9.717.293.195.531.371.531.394 0 .061-1.07.493-1.814.733-1.384.446-2.576.638-4.24.685-.586.016-1.142.051-1.237.08-.427.13-.653.498-.654 1.066-.003.645.179.874 1.066 1.342 3.899 2.067 8.326 2.874 12.522 2.282 4.726-.667 8.981-3.165 11.731-6.886 2.398-3.245 3.693-7.355 3.693-11.733v-.989l.354-.424a11.725 11.725 0 0 0 2.237-4.34l.019-.083c.141-.541.139-.75-.01-1.045-.176-.349-.515-.541-1.018-.573-.442-.027-.466-.019-1.195.451-.557.366-1.2.719-1.871 1.02l-.089.036c-.784.341-.747.341-1.123.035a7.267 7.267 0 0 0-5.295-1.549l.031-.003zm1.493 2.424c1.05.171 1.787.547 2.638 1.347.803.755.918.779 1.998.413.389-.131.722-.24.738-.24.066 0-.301.474-.738.952-.25.275-.493.578-.539.675-.091.194-.102.586-.034 1.173.054.464-.019 2.176-.133 3.067-.821 6.514-4.734 11.411-10.632 13.304-2.579.829-5.419.986-8.274.461a16.352 16.352 0 0 1-1.663-.388l.119.03c-.045-.016.205-.11.555-.211 1.57-.454 3.934-1.598 4.712-2.282.259-.256.424-.607.438-.996v-.003c0-.525-.179-.702-1.264-1.24-1.493-.742-2.578-1.488-3.526-2.429-1.925-1.904-2.878-4.146-3.078-7.234-.064-.978.064-2.317.387-4.093.016-.08.043-.147.062-.147s.24.235.491.52c1.142 1.301 2.496 2.366 3.891 3.059 1.886.939 3.667 1.403 5.928 1.546 1.382.088 1.886.006 2.168-.352.182-.234.213-.435.24-1.678.03-1.288.082-1.648.333-2.275.259-.65.554-1.083 1.115-1.645.608-.61 1.053-.888 1.819-1.144.835-.278 1.403-.326 2.246-.19z"/></symbol></defs></svg>