<svg aria-hidden="true" style="position: absolute; width: 0; height: 0; overflow: hidden;" version="1.1" xmlns="http://www.w3.org/2000/svg" xmlns:xlink="http://www.w3.org/1999/xlink">
<defs>
<symbol id="icon-chocolate" viewBox="0 0 32 32">
<path fill="#fcf1e0" style="fill: var(--color1, #fcf1e0)" d="M3.944 20.076l10.777-17.424 0.64-0.674 8.236 5.491 0.056 3.314 2.010 3.28-8.88 14.077-12.839-8.063z"></path>
<path fill="none" stroke="#fd9222" style="stroke: var(--color2, #fd9222)" stroke-linejoin="round" stroke-linecap="round" stroke-miterlimit="4" stroke-width="2.6667" d="M21.635 23.88l-14.185-8.864M11.361 8.599l14.185 8.864M10.63 25.864l11.736-19.25M27.176 14.789c-3.040-1.899-4.234-3.384-2.278-6.592l-9.626-6.015-11.736 19.25 14.186 8.864 9.454-15.507z"></path>
</symbol>
<symbol id="icon-arrow" viewBox="0 0 32 32">
<path fill="#fd9222" style="fill: var(--color2, #fd9222)" d="M16.947 17.867c-0.124 0.125-0.271 0.224-0.434 0.292s-0.337 0.103-0.513 0.103-0.35-0.035-0.513-0.103c-0.162-0.068-0.31-0.167-0.434-0.292l-6.107-6.12c-0.124-0.125-0.271-0.224-0.434-0.292s-0.337-0.103-0.513-0.103c-0.176 0-0.35 0.035-0.513 0.103s-0.31 0.167-0.434 0.292c-0.248 0.25-0.388 0.588-0.388 0.94s0.139 0.69 0.388 0.94l6.12 6.12c0.75 0.749 1.767 1.17 2.827 1.17s2.077-0.421 2.827-1.17l6.12-6.12c0.246-0.248 0.385-0.584 0.387-0.933 0.001-0.175-0.033-0.349-0.099-0.512s-0.164-0.31-0.288-0.435c-0.124-0.125-0.271-0.224-0.434-0.292s-0.337-0.103-0.513-0.103c-0.176 0-0.35 0.035-0.513 0.103s-0.31 0.167-0.434 0.292l-6.107 6.12z"></path>
</symbol>
<symbol id="icon-insta" viewBox="0 0 32 32">
<path d="M8.084 1.684c-2.968 0.505-5.335 2.635-6.173 5.426l-0.014 0.055c-0.304 1.050-0.297 0.838-0.297 8.835s-0.007 7.785 0.297 8.835c0.76 2.545 2.724 4.508 5.213 5.254l0.055 0.014c1.050 0.304 0.838 0.297 8.835 0.297s7.785 0.007 8.835-0.297c2.545-0.76 4.508-2.724 5.254-5.213l0.014-0.055c0.304-1.050 0.297-0.838 0.297-8.835s0.007-7.785-0.297-8.835c-0.76-2.545-2.724-4.508-5.213-5.254l-0.055-0.014c-1.053-0.304-0.826-0.297-8.9-0.291-5.911 0.006-7.514 0.022-7.85 0.079zM23.156 3.788c1.296 0.111 2.446 0.658 3.32 1.493l-0.002-0.002c0.969 0.905 1.612 2.15 1.737 3.544l0.002 0.021c0.073 0.768 0.073 13.545 0 14.313-0.111 1.296-0.658 2.446-1.493 3.32l0.002-0.002c-0.905 0.969-2.15 1.612-3.544 1.737l-0.021 0.002c-0.768 0.073-13.545 0.073-14.313 0-1.415-0.126-2.66-0.769-3.562-1.735l-0.003-0.003c-0.833-0.872-1.38-2.022-1.49-3.298l-0.001-0.020c-0.073-0.768-0.073-13.545 0-14.313 0.111-1.296 0.658-2.446 1.493-3.32l-0.002 0.002c0.913-0.972 2.189-1.61 3.468-1.734 0.676-0.065 13.724-0.070 14.41-0.004zM22.8 7.67c0.311-0.147 0.959-0.112 1.225 0.068 0.275 0.186 0.401 0.481 0.401 0.934 0 0.727-0.346 1.075-1.081 1.084-0.703 0.010-1.101-0.38-1.104-1.078-0.003-0.506 0.175-0.825 0.559-1.008zM15.6 9.524c-0.883 0.077-1.694 0.315-2.428 0.684l0.038-0.018c-2.134 1.060-3.574 3.225-3.574 5.726 0 0.204 0.010 0.406 0.028 0.605l-0.002-0.025c0.091 1.128 0.468 2.152 1.058 3.020l-0.014-0.022c0.99 1.468 2.532 2.499 4.321 2.796l0.038 0.005c0.534 0.084 1.632 0.071 2.131-0.026 2.652-0.512 4.672-2.516 5.185-5.145 0.116-0.592 0.116-1.743 0.001-2.324-0.273-1.383-0.82-2.419-1.792-3.392-0.874-0.9-2.018-1.534-3.3-1.773l-0.038-0.006c-0.414-0.069-0.892-0.109-1.378-0.109-0.097 0-0.193 0.002-0.289 0.005l0.014-0zM16.851 11.793c0.809 0.127 1.599 0.556 2.243 1.216 1.956 2.009 1.42 5.377-1.062 6.665-0.72 0.372-1.094 0.46-1.978 0.46-0.662 0-0.832-0.019-1.174-0.125-1.381-0.424-2.448-1.485-2.872-2.832l-0.008-0.031c-0.169-0.532-0.207-1.516-0.081-2.086 0.217-0.992 0.835-1.955 1.604-2.505 1.018-0.726 2.052-0.963 3.328-0.762z"></path>
</symbol>
<symbol id="icon-twitt" viewBox="0 0 32 32">
<path d="M21.213 2.829c-1.684 0.189-3.165 0.937-4.282 2.050l0-0c-1.315 1.315-2.104 3.117-2.104 4.814v0.44h-0.21c-1.051 0-3.234-0.578-4.522-1.197-1.688-0.811-3.155-2.16-4.853-4.462-0.568-0.77-0.768-0.922-1.19-0.914-0.533 0.010-0.973 0.347-1.218 0.936-0.485 1.163-0.947 3.179-1.126 4.906-0.077 0.739-0.080 2.456-0.005 3.211 0.41 4.12 2.392 7.4 5.872 9.717 0.293 0.195 0.531 0.371 0.531 0.394 0 0.061-1.070 0.493-1.814 0.733-1.384 0.446-2.576 0.638-4.24 0.685-0.586 0.016-1.142 0.051-1.237 0.080-0.427 0.13-0.653 0.498-0.654 1.066-0.003 0.645 0.179 0.874 1.066 1.342 3.899 2.067 8.326 2.874 12.522 2.282 4.726-0.667 8.981-3.165 11.731-6.886 2.398-3.245 3.693-7.355 3.693-11.733v-0.989l0.354-0.424c1.018-1.241 1.795-2.721 2.237-4.34l0.019-0.083c0.141-0.541 0.139-0.75-0.010-1.045-0.176-0.349-0.515-0.541-1.018-0.573-0.442-0.027-0.466-0.019-1.195 0.451-0.557 0.366-1.2 0.719-1.871 1.020l-0.089 0.036c-0.784 0.341-0.747 0.341-1.123 0.035-1.236-0.989-2.823-1.587-4.549-1.587-0.252 0-0.501 0.013-0.746 0.038l0.031-0.003zM22.706 5.253c1.050 0.171 1.787 0.547 2.638 1.347 0.803 0.755 0.918 0.779 1.998 0.413 0.389-0.131 0.722-0.24 0.738-0.24 0.066 0-0.301 0.474-0.738 0.952-0.25 0.275-0.493 0.578-0.539 0.675-0.091 0.194-0.102 0.586-0.034 1.173 0.054 0.464-0.019 2.176-0.133 3.067-0.821 6.514-4.734 11.411-10.632 13.304-2.579 0.829-5.419 0.986-8.274 0.461-0.634-0.116-1.153-0.24-1.663-0.388l0.119 0.030c-0.045-0.016 0.205-0.11 0.555-0.211 1.57-0.454 3.934-1.598 4.712-2.282 0.259-0.256 0.424-0.607 0.438-0.996l0-0.003c0-0.525-0.179-0.702-1.264-1.24-1.493-0.742-2.578-1.488-3.526-2.429-1.925-1.904-2.878-4.146-3.078-7.234-0.064-0.978 0.064-2.317 0.387-4.093 0.016-0.080 0.043-0.147 0.062-0.147s0.24 0.235 0.491 0.52c1.142 1.301 2.496 2.366 3.891 3.059 1.886 0.939 3.667 1.403 5.928 1.546 1.382 0.088 1.886 0.006 2.168-0.352 0.182-0.234 0.213-0.435 0.24-1.678 0.030-1.288 0.082-1.648 0.333-2.275 0.259-0.65 0.554-1.083 1.115-1.645 0.608-0.61 1.053-0.888 1.819-1.144 0.835-0.278 1.403-0.326 2.246-0.19z"></path>
</symbol>
</defs>
</svg>
